<?xml version="1.0" encoding="UTF-8" standalone="no"?>
<svg
   width="128"
   height="128"
   viewBox="0 0 48 48"
   version="1.1"
   id="svg11"
   sodipodi:docname="io.github.swordpuffin.rewaita.svg"
   inkscape:version="1.4.2 (ebf0e940d0, 2025-05-08)"
   inkscape:export-filename="icon.svg"
   inkscape:export-xdpi="256"
   inkscape:export-ydpi="256"
   xml:space="preserve"
   xmlns:inkscape="http://www.inkscape.org/namespaces/inkscape"
   xmlns:sodipodi="http://sodipodi.sourceforge.net/DTD/sodipodi-0.dtd"
   xmlns="http://www.w3.org/2000/svg"
   xmlns:svg="http://www.w3.org/2000/svg"><defs
     id="defs11" /><sodipodi:namedview
     id="namedview11"
     pagecolor="#ffffff"
     bordercolor="#000000"
     borderopacity="0.25"
     inkscape:showpageshadow="2"
     inkscape:pageopacity="0.0"
     inkscape:pagecheckerboard="0"
     inkscape:deskcolor="#d1d1d1"
     inkscape:zoom="2.8284271"
     inkscape:cx="4.9497475"
     inkscape:cy="93.514872"
     inkscape:window-width="1920"
     inkscape:window-height="992"
     inkscape:window-x="0"
     inkscape:window-y="0"
     inkscape:window-maximized="1"
     inkscape:current-layer="svg11" /><g
     transform="matrix(1.1071042,0,0,1.1071042,24.066604,24.042776)"
     id="g8"><path
       d="M 0,0 H 20 A 20,20 0 0 1 14.14,14.14 Z"
       fill="#3584e4"
       id="path1" /><path
       d="M 0,0 H 20 A 20,20 0 0 1 14.14,14.14 Z"
       fill="#2190a4"
       transform="rotate(45)"
       id="path2"
       style="fill:#20b2aa;fill-opacity:1" /><path
       d="M 0,0 H 20 A 20,20 0 0 1 14.14,14.14 Z"
       fill="#3a944a"
       transform="rotate(90)"
       id="path3" /><path
       d="M 0,0 H 20 A 20,20 0 0 1 14.14,14.14 Z"
       fill="#c88800"
       transform="rotate(135)"
       id="path4"
       style="fill:#f6d32d;fill-opacity:1" /><path
       d="M 0,0 H 20 A 20,20 0 0 1 14.14,14.14 Z"
       fill="#ed5b00"
       transform="scale(-1)"
       id="path5" /><path
       d="M 0,0 H 20 A 20,20 0 0 1 14.14,14.14 Z"
       fill="#e62d42"
       transform="rotate(-135)"
       id="path6" /><path
       d="M 0,0 H 20 A 20,20 0 0 1 14.14,14.14 Z"
       fill="#d56199"
       transform="rotate(-90)"
       id="path7" /><path
       d="M 0,0 H 20 A 20,20 0 0 1 14.14,14.14 Z"
       fill="#9141ac"
       transform="rotate(-45)"
       id="path8"
       style="fill:#613583;fill-opacity:1" /><circle
       cx="0"
       cy="0"
       r="16"
       fill="#282828"
       id="circle8" /></g><g
     transform="matrix(2.5120457,0,0,2.5120457,-20.537798,-12.176582)"
     id="g11"><path
       fill="#ffffff"
       d="m 12,13.999683 h 6 v 6 z"
       id="path9"
       style="fill:#8be9fd;fill-opacity:1" /><path
       fill="#ffffff"
       opacity="0.75"
       d="m 22,10 h -4 v 4 z"
       id="path10"
       style="opacity:1;fill:#ff5555;fill-opacity:1" /><path
       fill="#ffffff"
       opacity="0.4"
       d="m 18,14 h 3 v 3 z"
       id="path11"
       style="opacity:1;fill:#50fa7b;fill-opacity:1" /></g></svg>
